<svg xmlns="http://www.w3.org/2000/svg" xmlns:xlink="http://www.w3.org/1999/xlink" width="500" zoomAndPan="magnify" viewBox="0 0 375 374.999991" height="500" preserveAspectRatio="xMidYMid meet" version="1.0"><defs><g/><clipPath id="7a9eeb45c4"><path d="M 0.78125 76.257812 L 375 76.257812 L 375 299.757812 L 0.78125 299.757812 Z M 0.78125 76.257812 " clip-rule="nonzero"/></clipPath><clipPath id="c660d6128a"><path d="M 81.988281 95 L 297 95 L 297 278 L 81.988281 278 Z M 81.988281 95 " clip-rule="nonzero"/></clipPath></defs><g clip-path="url(#7a9eeb45c4)"><path fill="#ffffff" d="M 0.78125 76.257812 L 375.03125 76.257812 L 375.03125 299.757812 L 0.78125 299.757812 Z M 0.78125 76.257812 " fill-opacity="1" fill-rule="nonzero"/></g><path fill="#486e9e" d="M 207.292969 159.953125 C 207.292969 159.953125 222.183594 158.550781 248.289062 155.746094 C 274.394531 152.945312 275.09375 158.550781 275.09375 158.550781 C 267.824219 158.113281 207.292969 159.953125 207.292969 159.953125 Z M 86.664062 150.375 C 86.664062 150.375 104.277344 150.570312 124.566406 151.25 C 124.566406 151.25 138.351562 151.234375 141.152344 155.265625 L 160.558594 154.519531 C 160.558594 154.519531 154.730469 147.601562 119.515625 146.636719 L 115.269531 148.78125 C 115.269531 148.78125 107.601562 148.34375 96.039062 148.214844 L 93.398438 145.722656 C 93.132812 145.472656 92.761719 145.367188 92.402344 145.441406 L 88.375 146.273438 C 88.078125 146.335938 87.835938 146.550781 87.746094 146.84375 Z M 156.484375 119.566406 C 156.484375 119.566406 225.339844 68.847656 278.6875 98.015625 C 278.6875 98.015625 312.851562 114.339844 297.609375 166.960938 L 314.136719 166.960938 C 314.136719 166.960938 335.453125 107.214844 286.835938 87.507812 C 238.214844 67.796875 170.9375 104.589844 156.484375 119.566406 Z M 245.574219 238.617188 C 245.574219 238.617188 203.789062 276.722656 159.375 282.507812 C 114.960938 288.289062 95.25 277.25 83.164062 252.546875 C 83.164062 252.546875 94.464844 307.210938 175.933594 287.761719 C 175.933594 287.761719 219.035156 277.773438 264.234375 238.617188 Z M 245.574219 238.617188 " fill-opacity="1" fill-rule="nonzero"/><g clip-path="url(#c660d6128a)"><path fill="#004aad" d="M 284.820312 148.449219 C 284.820312 148.449219 278.976562 145.878906 265.078125 143.894531 C 265.078125 143.894531 262.304688 143.484375 255.5625 139.804688 C 248.816406 136.125 233.078125 126.136719 218.359375 125.089844 C 218.359375 125.089844 203.699219 123.816406 179.785156 130.125 C 179.785156 130.125 191.347656 124.394531 215.175781 123.863281 C 215.175781 123.863281 186.121094 121.933594 168.484375 122.285156 C 168.484375 122.285156 152.835938 123.21875 141.855469 126.957031 C 130.875 130.695312 101.210938 140.738281 90.464844 142.957031 C 90.464844 142.957031 106.464844 144.242188 123.402344 142.957031 C 123.402344 142.957031 115.222656 142.257812 112.65625 138.753906 L 143.609375 128.242188 C 143.609375 128.242188 146.847656 127.042969 150.617188 127.308594 C 150.617188 127.308594 168.484375 126.753906 178.121094 129.90625 C 178.121094 129.90625 160.691406 138.839844 128.363281 144.183594 C 128.363281 144.183594 134.847656 146.578125 166.613281 145.90625 C 195.578125 145.296875 254.21875 146.929688 264.964844 147.863281 C 264.964844 147.863281 277.8125 149.03125 282.832031 152.417969 C 282.832031 152.417969 274.773438 157.089844 275.125 167.253906 C 275.125 167.253906 280.265625 155.457031 286.804688 155.6875 C 293.34375 155.921875 296.03125 167.253906 296.03125 167.253906 C 296.03125 167.253906 299.535156 154.402344 284.820312 148.449219 Z M 198.152344 142.082031 C 193.828125 142.082031 190.910156 141.207031 189.800781 140.621094 C 188.691406 140.035156 187.171875 138.632812 185.828125 137.058594 C 184.484375 135.480469 185.539062 134.78125 185.539062 134.78125 C 198.445312 127.363281 212.109375 127.246094 212.109375 127.246094 C 218.242188 134.019531 221.542969 143.070312 221.542969 143.070312 C 221.542969 143.070312 202.472656 142.082031 198.152344 142.082031 Z M 227.0625 143.074219 C 223.324219 133.847656 215.847656 127.25 215.847656 127.25 C 236.234375 127.75 258.132812 144.359375 258.132812 144.359375 Z M 85.730469 151.894531 C 85.730469 151.894531 84.621094 154.460938 81.992188 157.382812 C 81.992188 157.382812 81.992188 164.039062 83.859375 166.960938 C 83.859375 166.960938 85.597656 163.707031 85.65625 159.96875 L 96.386719 160.476562 C 96.386719 160.476562 90.867188 161.003906 91.742188 166.433594 C 91.742188 166.433594 91.480469 162.054688 97.789062 162.40625 C 104.09375 162.757812 112.417969 161.792969 115.132812 166.609375 C 115.132812 166.609375 115.761719 161.917969 103.832031 161.089844 C 103.832031 161.089844 138.523438 161.441406 146.320312 160.566406 C 146.320312 160.566406 102.167969 159.425781 86.136719 156.710938 C 86.140625 156.710938 86.34375 154.960938 85.730469 151.894531 Z M 180.046875 166.960938 C 180.046875 166.960938 183.375 162.492188 189.859375 162.84375 C 196.339844 163.191406 197.65625 165.734375 198.882812 166.960938 L 202.824219 166.960938 C 202.824219 166.960938 199.234375 159.074219 189.945312 158.988281 C 180.660156 158.902344 177.160156 164.769531 176.28125 166.960938 Z M 287.882812 120.355469 C 287.882812 120.355469 277.230469 91.671875 230.503906 96.351562 C 230.503906 96.351562 197.21875 99.332031 168.832031 117.550781 L 184.515625 117.550781 C 184.515625 117.554688 253.980469 77.78125 287.882812 120.355469 Z M 88.417969 238.617188 C 88.417969 238.617188 92.097656 270.855469 129.589844 276.636719 C 167.082031 282.417969 203.347656 261.921875 217.015625 253.335938 C 217.015625 253.335938 170.238281 281.367188 130.464844 269.28125 C 130.464844 269.28125 105.0625 261.222656 102.082031 238.617188 Z M 88.417969 238.617188 " fill-opacity="1" fill-rule="nonzero"/></g><path stroke-linecap="butt" transform="matrix(0.75, 0, 0, 0.75, 7.928632, 167.038743)" fill="none" stroke-linejoin="miter" d="M 0.00140736 2.500426 L 476.46498 2.500426 " stroke="#545454" stroke-width="5" stroke-opacity="1" stroke-miterlimit="4"/><path stroke-linecap="butt" transform="matrix(0.75, 0, 0, 0.75, 7.928632, 236.216732)" fill="none" stroke-linejoin="miter" d="M 0.00140736 2.497482 L 476.46498 2.497482 " stroke="#545454" stroke-width="5" stroke-opacity="1" stroke-miterlimit="4"/><g fill="#004aad" fill-opacity="1"><g transform="translate(41.785513, 211.934079)"><g><path d="M 10.8125 -13.078125 C 10.8125 -11.085938 11.398438 -9.488281 12.578125 -8.28125 C 13.753906 -7.070312 15.25 -6.46875 17.0625 -6.46875 C 18.84375 -6.46875 20.285156 -7.0625 21.390625 -8.25 C 22.492188 -9.445312 23.046875 -11.054688 23.046875 -13.078125 L 23.046875 -31.734375 L 31.328125 -31.734375 L 31.328125 -13.078125 C 31.328125 -10.335938 30.742188 -7.929688 29.578125 -5.859375 C 28.421875 -3.796875 26.757812 -2.203125 24.59375 -1.078125 C 22.4375 0.0351562 19.910156 0.59375 17.015625 0.59375 C 14.117188 0.59375 11.578125 0.0351562 9.390625 -1.078125 C 7.203125 -2.203125 5.507812 -3.796875 4.3125 -5.859375 C 3.125 -7.929688 2.53125 -10.335938 2.53125 -13.078125 L 2.53125 -31.734375 L 10.8125 -31.734375 Z M 10.8125 -13.078125 "/></g></g></g><g fill="#004aad" fill-opacity="1"><g transform="translate(90.085018, 211.934079)"><g><path d="M 24.8125 -12.625 L 24.765625 -31.734375 L 32.453125 -31.734375 L 32.453125 0 L 25.21875 0 L 10.8125 -18.96875 L 10.8125 0 L 3.078125 0 L 3.078125 -31.734375 L 10.359375 -31.734375 Z M 24.8125 -12.625 "/></g></g></g><g fill="#004aad" fill-opacity="1"><g transform="translate(140.05925, 211.934079)"><g><path d="M 3.078125 0 L 3.078125 -31.734375 L 11.359375 -31.734375 L 11.359375 0 Z M 3.078125 0 "/></g></g></g><g fill="#004aad" fill-opacity="1"><g transform="translate(168.895662, 211.934079)"><g><path d="M 31.5 0 L 22.140625 0 L 17.515625 -8.78125 L 11.359375 -8.78125 L 11.359375 0 L 3.078125 0 L 3.078125 -31.734375 L 17.34375 -31.734375 C 21.53125 -31.734375 24.773438 -30.757812 27.078125 -28.8125 C 29.390625 -26.863281 30.546875 -24.125 30.546875 -20.59375 C 30.546875 -18.207031 30.0625 -16.144531 29.09375 -14.40625 C 28.132812 -12.675781 26.734375 -11.328125 24.890625 -10.359375 Z M 11.359375 -25.125 L 11.359375 -15.390625 L 17.375 -15.390625 C 19.070312 -15.390625 20.378906 -15.8125 21.296875 -16.65625 C 22.210938 -17.5 22.671875 -18.722656 22.671875 -20.328125 C 22.671875 -21.867188 22.210938 -23.050781 21.296875 -23.875 C 20.378906 -24.707031 19.070312 -25.125 17.375 -25.125 Z M 11.359375 -25.125 "/></g></g></g><g fill="#004aad" fill-opacity="1"><g transform="translate(216.063579, 211.934079)"><g><path d="M 3.078125 0 L 3.078125 -31.734375 L 11.359375 -31.734375 L 11.359375 0 Z M 3.078125 0 "/></g></g></g><g fill="#004aad" fill-opacity="1"><g transform="translate(244.899979, 211.934079)"><g><path d="M 16.75 -31.734375 C 20.070312 -31.734375 23.003906 -31.066406 25.546875 -29.734375 C 28.097656 -28.410156 30.082031 -26.546875 31.5 -24.140625 C 32.914062 -21.742188 33.625 -18.992188 33.625 -15.890625 C 33.625 -12.773438 32.90625 -10.007812 31.46875 -7.59375 C 30.039062 -5.1875 28.019531 -3.316406 25.40625 -1.984375 C 22.800781 -0.660156 19.8125 0 16.4375 0 L 3.078125 0 L 3.078125 -31.734375 Z M 16.96875 -6.703125 C 18.570312 -6.703125 19.988281 -7.078125 21.21875 -7.828125 C 22.457031 -8.585938 23.425781 -9.660156 24.125 -11.046875 C 24.820312 -12.429688 25.171875 -14.015625 25.171875 -15.796875 C 25.171875 -17.609375 24.800781 -19.207031 24.0625 -20.59375 C 23.320312 -21.976562 22.300781 -23.054688 21 -23.828125 C 19.707031 -24.597656 18.226562 -24.984375 16.5625 -24.984375 L 11.359375 -24.984375 L 11.359375 -6.703125 Z M 16.96875 -6.703125 "/></g></g></g><g fill="#004aad" fill-opacity="1"><g transform="translate(293.968956, 211.934079)"><g><path d="M 3.078125 0 L 3.078125 -31.734375 L 28.109375 -31.734375 L 28.109375 -25.125 L 11.359375 -25.125 L 11.359375 -19.1875 L 26.484375 -19.1875 L 26.484375 -12.625 L 11.359375 -12.578125 L 11.359375 -6.609375 L 28.5625 -6.609375 L 28.5625 0 Z M 3.078125 0 "/></g></g></g><g fill="#486e9e" fill-opacity="1"><g transform="translate(87.505431, 229.90909)"><g><path d="M 6.546875 0.125 C 5.429688 0.125 4.453125 -0.0625 3.609375 -0.4375 C 2.773438 -0.820312 2.128906 -1.367188 1.671875 -2.078125 C 1.210938 -2.796875 0.984375 -3.644531 0.984375 -4.625 C 0.984375 -5.613281 1.210938 -6.460938 1.671875 -7.171875 C 2.140625 -7.890625 2.789062 -8.441406 3.625 -8.828125 C 4.457031 -9.210938 5.4375 -9.40625 6.5625 -9.40625 C 7.382812 -9.40625 8.132812 -9.304688 8.8125 -9.109375 C 9.5 -8.910156 10.078125 -8.609375 10.546875 -8.203125 L 9.859375 -6.734375 C 9.367188 -7.085938 8.867188 -7.34375 8.359375 -7.5 C 7.847656 -7.664062 7.273438 -7.75 6.640625 -7.75 C 5.515625 -7.75 4.632812 -7.476562 4 -6.9375 C 3.363281 -6.40625 3.046875 -5.632812 3.046875 -4.625 C 3.046875 -3.625 3.359375 -2.859375 3.984375 -2.328125 C 4.617188 -1.796875 5.503906 -1.53125 6.640625 -1.53125 C 7.273438 -1.53125 7.847656 -1.609375 8.359375 -1.765625 C 8.867188 -1.929688 9.367188 -2.191406 9.859375 -2.546875 L 10.546875 -1.0625 C 10.078125 -0.664062 9.5 -0.367188 8.8125 -0.171875 C 8.125 0.0234375 7.367188 0.125 6.546875 0.125 Z M 6.546875 0.125 "/></g></g></g><g fill="#486e9e" fill-opacity="1"><g transform="translate(108.29661, 229.90909)"><g><path d="M 0.15625 0 L 5.296875 -9.28125 L 7.03125 -9.28125 L 12.171875 0 L 10.140625 0 L 8.75 -2.59375 L 9.640625 -2 L 2.65625 -2 L 3.546875 -2.59375 L 2.15625 0 Z M 6.125 -7.46875 L 3.78125 -3.0625 L 3.296875 -3.5 L 9 -3.5 L 8.515625 -3.0625 L 6.171875 -7.46875 Z M 6.125 -7.46875 "/></g></g></g><g fill="#486e9e" fill-opacity="1"><g transform="translate(130.139673, 229.90909)"><g><path d="M 1.390625 0 L 1.390625 -9.28125 L 6.53125 -9.28125 C 7.769531 -9.28125 8.71875 -9.046875 9.375 -8.578125 C 10.03125 -8.109375 10.359375 -7.425781 10.359375 -6.53125 C 10.359375 -5.945312 10.21875 -5.453125 9.9375 -5.046875 C 9.65625 -4.648438 9.242188 -4.335938 8.703125 -4.109375 C 8.171875 -3.890625 7.53125 -3.765625 6.78125 -3.734375 L 6.890625 -3.859375 L 7.375 -3.84375 C 7.726562 -3.820312 8.046875 -3.726562 8.328125 -3.5625 C 8.617188 -3.40625 8.882812 -3.15625 9.125 -2.8125 L 11.09375 0 L 8.921875 0 L 7.03125 -2.796875 C 6.894531 -2.984375 6.757812 -3.128906 6.625 -3.234375 C 6.488281 -3.347656 6.316406 -3.425781 6.109375 -3.46875 C 5.898438 -3.519531 5.628906 -3.546875 5.296875 -3.546875 L 3.359375 -3.546875 L 3.359375 0 Z M 3.359375 -4.984375 L 6.328125 -4.984375 C 7.078125 -4.984375 7.617188 -5.101562 7.953125 -5.34375 C 8.285156 -5.582031 8.453125 -5.9375 8.453125 -6.40625 C 8.453125 -6.875 8.28125 -7.21875 7.9375 -7.4375 C 7.601562 -7.65625 7.054688 -7.765625 6.296875 -7.765625 L 3.359375 -7.765625 Z M 3.359375 -4.984375 "/></g></g></g><g fill="#486e9e" fill-opacity="1"><g transform="translate(151.141231, 229.90909)"><g/></g></g><g fill="#486e9e" fill-opacity="1"><g transform="translate(165.12144, 229.90909)"><g><path d="M 1.390625 0 L 1.390625 -9.28125 L 6.53125 -9.28125 C 7.769531 -9.28125 8.71875 -9.046875 9.375 -8.578125 C 10.03125 -8.109375 10.359375 -7.425781 10.359375 -6.53125 C 10.359375 -5.945312 10.21875 -5.453125 9.9375 -5.046875 C 9.65625 -4.648438 9.242188 -4.335938 8.703125 -4.109375 C 8.171875 -3.890625 7.53125 -3.765625 6.78125 -3.734375 L 6.890625 -3.859375 L 7.375 -3.84375 C 7.726562 -3.820312 8.046875 -3.726562 8.328125 -3.5625 C 8.617188 -3.40625 8.882812 -3.15625 9.125 -2.8125 L 11.09375 0 L 8.921875 0 L 7.03125 -2.796875 C 6.894531 -2.984375 6.757812 -3.128906 6.625 -3.234375 C 6.488281 -3.347656 6.316406 -3.425781 6.109375 -3.46875 C 5.898438 -3.519531 5.628906 -3.546875 5.296875 -3.546875 L 3.359375 -3.546875 L 3.359375 0 Z M 3.359375 -4.984375 L 6.328125 -4.984375 C 7.078125 -4.984375 7.617188 -5.101562 7.953125 -5.34375 C 8.285156 -5.582031 8.453125 -5.9375 8.453125 -6.40625 C 8.453125 -6.875 8.28125 -7.21875 7.9375 -7.4375 C 7.601562 -7.65625 7.054688 -7.765625 6.296875 -7.765625 L 3.359375 -7.765625 Z M 3.359375 -4.984375 "/></g></g></g><g fill="#486e9e" fill-opacity="1"><g transform="translate(186.122997, 229.90909)"><g><path d="M 1.390625 0 L 1.390625 -9.28125 L 9.078125 -9.28125 L 9.078125 -7.75 L 3.296875 -7.75 L 3.296875 -5.46875 L 8.640625 -5.46875 L 8.640625 -3.953125 L 3.296875 -3.953125 L 3.296875 -1.53125 L 9.078125 -1.53125 L 9.078125 0 Z M 1.390625 0 "/></g></g></g><g fill="#486e9e" fill-opacity="1"><g transform="translate(205.651901, 229.90909)"><g><path d="M 1.390625 0 L 1.390625 -9.28125 L 2.984375 -9.28125 L 9.59375 -2.4375 L 9.34375 -2.4375 L 9.34375 -9.28125 L 11.234375 -9.28125 L 11.234375 0 L 9.609375 0 L 3.046875 -6.8125 L 3.28125 -6.8125 L 3.28125 0 Z M 1.390625 0 "/></g></g></g><g fill="#486e9e" fill-opacity="1"><g transform="translate(227.797381, 229.90909)"><g><path d="M 4.171875 0 L 4.171875 -7.6875 L 0.15625 -7.6875 L 0.15625 -9.28125 L 10.15625 -9.28125 L 10.15625 -7.6875 L 6.140625 -7.6875 L 6.140625 0 Z M 4.171875 0 "/></g></g></g><g fill="#486e9e" fill-opacity="1"><g transform="translate(247.615563, 229.90909)"><g><path d="M 0.15625 0 L 5.296875 -9.28125 L 7.03125 -9.28125 L 12.171875 0 L 10.140625 0 L 8.75 -2.59375 L 9.640625 -2 L 2.65625 -2 L 3.546875 -2.59375 L 2.15625 0 Z M 6.125 -7.46875 L 3.78125 -3.0625 L 3.296875 -3.5 L 9 -3.5 L 8.515625 -3.0625 L 6.171875 -7.46875 Z M 6.125 -7.46875 "/></g></g></g><g fill="#486e9e" fill-opacity="1"><g transform="translate(269.458623, 229.90909)"><g><path d="M 1.390625 0 L 1.390625 -9.28125 L 3.359375 -9.28125 L 3.359375 -1.625 L 8.96875 -1.625 L 8.96875 0 Z M 1.390625 0 "/></g></g></g></svg>